<svg xmlns="http://www.w3.org/2000/svg" viewBox="0 0 763.34 497.44"><defs><style>.cls-1{opacity:0.7;}.cls-2{fill:#baf0ff;}.cls-3{fill:#312687;}.cls-4,.cls-6{fill:#302775;stroke:#9f92ff;}.cls-4,.cls-6,.cls-7{stroke-miterlimit:10;}.cls-4{stroke-width:0.99px;}.cls-5{fill:#9f92ff;}.cls-6{stroke-width:1.13px;}.cls-10,.cls-7,.cls-8{fill:none;}.cls-7{stroke:#312687;}.cls-7,.cls-8{stroke-width:3.4px;}.cls-10,.cls-8{stroke:#5a5775;stroke-linecap:round;stroke-linejoin:round;}.cls-9{fill:#27214a;}.cls-10{stroke-width:2.27px;}</style></defs><g id="Слой_2" data-name="Слой 2"><g id="Слой_1-2" data-name="Слой 1"><g class="cls-1"><path class="cls-2" d="M762.47,176.91c8.76-68.67-50-127.33-118.56-117.77-67.16,9.37-117.63,41.64-193.62,39.27C335.93,94.85,428-39.91,314,11.8S-30.51,184.88,3.36,266.42s176.42-37.48,251.38,54.82,66.4,174,209.48,176.18c90.09,1.35,216.69-54.47,266.61-191.76A599,599,0,0,0,762.47,176.91Z"/><path class="cls-3" d="M678.34,327.84H162.24V315.71c.25-2.22.86-5.68,1.81-10,.73-3.31,1.65-7.14,2.75-11.34,9.3-35.7,31.66-98.65,59.26-101.82,35.16-4.05,391.68-9.09,429.05,0S678.34,327.84,678.34,327.84Z"/><path class="cls-4" d="M514.59,215.18h33.89a5.82,5.82,0,0,1,5.82,5.82V324.45a0,0,0,0,1,0,0H508.77a0,0,0,0,1,0,0V221A5.82,5.82,0,0,1,514.59,215.18Z"/><rect class="cls-5" x="514.88" y="222.37" width="33.38" height="38.34" rx="4.74"/><path class="cls-4" d="M560.13,215.18H594a5.82,5.82,0,0,1,5.82,5.82V324.45a0,0,0,0,1,0,0H554.31a0,0,0,0,1,0,0V221A5.82,5.82,0,0,1,560.13,215.18Z"/><rect class="cls-5" x="560.42" y="222.37" width="33.38" height="38.34" rx="4.74"/><path class="cls-6" d="M268.52,215.18H316a5.82,5.82,0,0,1,5.82,5.82V324.45a0,0,0,0,1,0,0H262.69a0,0,0,0,1,0,0V221A5.82,5.82,0,0,1,268.52,215.18Z"/><path class="cls-5" d="M646,266.42v8.11H235.76c-3.87,0-59.15,22.11-71.71,31.13.73-3.31,1.65-7.14,2.75-11.34,14-9.43,66.14-27.9,69.77-27.9Z"/><path class="cls-5" d="M220.81,212.44c-8.42,2.34-26.14,36.31-29,43-3,7-4,13-3,14s6.57-.87,7-1c3.31-1,20-8.95,29.57-12.32a7.5,7.5,0,0,0,5-7c.09-8,.44-22.95.42-29.69,0-1.62,0-6-1-7Z"/><rect class="cls-5" x="270.64" y="222.37" width="43.37" height="38.34" rx="4.74"/><rect class="cls-5" x="349" y="219.28" width="43.37" height="38.34" rx="4.74"/><rect class="cls-5" x="399.92" y="219.28" width="43.37" height="38.34" rx="4.74"/><rect class="cls-5" x="450.29" y="219.28" width="43.37" height="38.34" rx="4.74"/><line class="cls-7" x1="346" y1="233.3" x2="498.34" y2="233.3"/><line class="cls-8" x1="421.6" y1="344.16" x2="717.9" y2="344.16"/><rect class="cls-9" x="49.09" y="321.24" width="638.13" height="8.31"/><path class="cls-10" d="M229,182.46s75.8-3.89,128.12-3.19"/></g></g></g></svg>